<?xml version="1.0" encoding="iso-8859-1"?>
<!-- Generator: Adobe Illustrator 19.2.0, SVG Export Plug-In . SVG Version: 6.00 Build 0)  -->
<svg version="1.1" id="Layer_1" xmlns="http://www.w3.org/2000/svg" xmlns:xlink="http://www.w3.org/1999/xlink" x="0px" y="0px"
	 viewBox="0 0 512 512" enable-background="new 0 0 512 512" xml:space="preserve">
<g>
	<g>
		<path d="M486.56,367.878c-11.881,0-21.513,9.632-21.513,21.513v34.392c0,16.318-8.696,30.643-21.697,38.587V284.836
			c0-24.122-19.626-43.748-43.748-43.748h-122.09V216.59c33.909-9.433,58.873-40.567,58.873-77.44
			c0-16.169-4.782-31.733-13.834-45.074l-48.102-83.319C270.607,4.1,263.504,0,255.819,0c-7.686,0-14.788,4.1-18.632,10.757
			L185.964,99.48c-0.462,0.802-0.868,1.625-1.218,2.467c-5.982,11.442-9.132,24.247-9.132,37.203
			c0,36.874,24.964,68.006,58.873,77.44v24.498H112.396c-24.122,0-43.746,19.626-43.746,43.748v177.536
			c-13-7.944-21.697-22.269-21.697-38.587v-34.392c0-11.881-9.632-21.513-21.513-21.513s-21.513,9.632-21.513,21.513v34.392
			C3.927,472.427,43.5,512,92.142,512h20.254h287.206h20.254c48.643,0,88.217-39.573,88.217-88.215v-34.392
			C508.073,377.51,498.442,367.878,486.56,367.878z M218.641,139.15c0-6.424,1.664-12.76,4.809-18.325
			c0.327-0.578,0.624-1.166,0.892-1.764l31.477-54.52l29.892,51.775c0.304,0.526,0.628,1.04,0.977,1.537
			c4.366,6.27,6.673,13.634,6.673,21.297c0,12.595-6.27,23.746-15.847,30.517v-18.085c0-11.881-9.632-21.513-21.513-21.513
			c-11.881,0-21.513,9.632-21.513,21.513v18.084C224.911,162.895,218.641,151.744,218.641,139.15z M400.324,468.252
			c0,0.397-0.324,0.721-0.721,0.721H112.396c-0.397,0-0.72-0.324-0.72-0.721V284.836c0-0.397,0.324-0.721,0.72-0.721h287.206
			c0.397,0,0.721,0.324,0.721,0.721v183.416H400.324z"/>
	</g>
</g>
</svg>
