<?xml version="1.0" encoding="utf-8"?>
<!-- Generator: Adobe Illustrator 19.2.0, SVG Export Plug-In . SVG Version: 6.00 Build 0)  -->
<svg version="1.1" id="Layer_1" xmlns="http://www.w3.org/2000/svg" xmlns:xlink="http://www.w3.org/1999/xlink" x="0px" y="0px"
	 viewBox="0 0 621.3 65.1" enable-background="new 0 0 621.3 65.1" xml:space="preserve">
<title>divider3</title>
<path id="path2383" fill="#FFFFFF" d="M128.9,35.8c5.4-7.6,3.7-18.7-0.9-21.9c-8.1-5.9-16.9,6.4-12.8,18.5
	c4,12.5,14.1,21.3,27.9,23.8c29.8,5.3,88.8-27.2,126.1-37.1c27.8-7.4,44.7,3.7,53.9,16c-18.8-13.3-36-8.7-53.6-5.4
	c-40.5,7.5-82.4,39.4-126.8,34.4c-20.7-3.1-35.2-23.7-34-39.8c0.1-1.4,0.3-2.8,0.7-4.2c2.7-9.6,7.5-13.5,11.8-14.6
	C132.7,2.2,144.1,23.3,128.9,35.8z"/>
<path id="path2390" fill="#FFFFFF" d="M119.8,42.6C111.5,35.3,103.1,24,95.5,19C16-33.6-24.7,37.5,16,57.9c6.3,3.2,19.3,5,28.7-7.5
	c-11.4,8.7-24.1,5.7-29.3,1.2c-13.9-12-9.1-29,7.3-36.8C48.5,5,71.8,15.5,92.2,30.2c14.6,8.7,18.3,12.8,30.1,18.1
	c-6.7,0.3-3.2-8.5-9.5-12.6L119.8,42.6L119.8,42.6L119.8,42.6z"/>
<path id="path2479" fill="#FFFFFF" d="M485.6,33.5c-5.7,7.6-3.9,18.8,1,22.1c8.5,5.9,17.9-6.4,13.6-18.7c-4.3-12.6-15-21.5-29.5-24
	C439,7.6,376.5,40.3,336.9,50.3c-29.5,7.4-47.5-3.7-57.2-16.1c20,13.4,38.1,8.8,56.9,5.5C379.5,32.1,423.9-0.1,471,5
	c22,3.1,37.4,23.9,36.1,40.1c-0.1,1.4-0.4,2.8-0.7,4.2c-2.9,9.6-8,13.6-12.5,14.8C481.6,67.3,469.5,46.1,485.6,33.5z"/>
<path id="path2481" fill="#FFFFFF" d="M495.6,22.8c8.6,7.2,17.5,18.5,25.4,23.4c83.4,52.2,126.2-18.3,83.4-38.6
	c-6.6-3.1-20.3-5-30.1,7.4c12-8.6,25.3-5.7,30.8-1.2c14.6,11.9,9.5,28.8-7.7,36.5c-27.1,9.8-51.6-0.7-73-15.2
	c-15.3-8.7-19.2-12.7-31.5-18c7-0.3,3.3,8.4,10,12.5L495.6,22.8z"/>
</svg>
